<?xml version="1.0" encoding="UTF-8"?>
<svg id="Lager_3" data-name="Lager 3" xmlns="http://www.w3.org/2000/svg" viewBox="0 0 292.44 119.44">
  <g>
    <path d="m138.08,46.5h7.04c1.9,0,3.37.15,4.39.45,1.02.3,1.79.73,2.31,1.29.51.56.86,1.25,1.04,2.05.18.8.27,2.04.27,3.73v2.34c0,1.72-.18,2.97-.53,3.75s-1,1.39-1.95,1.81c-.95.42-2.18.63-3.71.63h-1.88v10.82h-6.99v-26.88Zm6.99,4.6v6.84c.2.01.37.02.51.02.64,0,1.09-.16,1.34-.47.25-.32.37-.97.37-1.97v-2.21c0-.92-.14-1.52-.43-1.79s-.89-.42-1.79-.42Z" style="fill: #1d1d1b; stroke-width: 0px;"/>
    <path d="m155.14,46.5h4.95c3.3,0,5.53.13,6.7.38,1.17.25,2.12.9,2.86,1.95.74,1.05,1.1,2.71,1.1,5.01,0,2.09-.26,3.5-.78,4.22s-1.54,1.15-3.07,1.29c1.38.34,2.31.8,2.79,1.38s.77,1.1.89,1.58c.12.48.17,1.81.17,3.98v7.09h-6.49v-8.93c0-1.44-.11-2.33-.34-2.67-.23-.34-.82-.51-1.78-.51v12.12h-6.99v-26.88Zm6.99,4.6v5.98c.79,0,1.34-.11,1.65-.32.32-.22.47-.92.47-2.1v-1.48c0-.85-.15-1.41-.46-1.68-.3-.27-.86-.4-1.67-.4Z" style="fill: #1d1d1b; stroke-width: 0px;"/>
    <path d="m189.43,62.24c0,2.7-.06,4.61-.19,5.74-.13,1.12-.53,2.15-1.2,3.08-.67.93-1.57,1.64-2.71,2.14s-2.47.75-3.98.75c-1.44,0-2.73-.24-3.88-.71-1.15-.47-2.07-1.18-2.76-2.12s-1.11-1.96-1.25-3.07-.2-3.04-.2-5.81v-4.6c0-2.7.06-4.61.19-5.74.13-1.12.53-2.15,1.2-3.08.67-.93,1.57-1.64,2.71-2.14s2.47-.75,3.98-.75c1.44,0,2.73.24,3.88.71,1.15.47,2.07,1.18,2.76,2.12s1.11,1.96,1.25,3.07.2,3.04.2,5.81v4.6Zm-6.99-8.83c0-1.25-.07-2.05-.21-2.4-.14-.35-.42-.52-.85-.52-.37,0-.64.14-.84.42-.19.28-.29,1.12-.29,2.5v12.55c0,1.56.06,2.52.19,2.89.13.37.42.55.89.55s.78-.21.91-.63.2-1.42.2-3v-12.35Z" style="fill: #1d1d1b; stroke-width: 0px;"/>
    <path d="m206.11,46.5v5.38h-4.15v21.5h-6.99v-21.5h-4.13v-5.38h15.27Z" style="fill: #1d1d1b; stroke-width: 0px;"/>
    <path d="m207.7,46.5h11.65v5.38h-4.67v5.1h4.37v5.11h-4.37v5.91h5.13v5.38h-12.12v-26.88Z" style="fill: #1d1d1b; stroke-width: 0px;"/>
    <path d="m238.15,58.2h-6.99v-4.67c0-1.36-.07-2.21-.22-2.54-.15-.34-.48-.5-.99-.5-.58,0-.94.21-1.1.61s-.23,1.29-.23,2.66v12.48c0,1.31.08,2.16.23,2.56s.5.6,1.05.6.86-.2,1.02-.6c.16-.4.24-1.34.24-2.81v-3.38h6.99v1.05c0,2.78-.2,4.76-.59,5.92-.39,1.16-1.26,2.18-2.61,3.06-1.34.88-3,1.31-4.97,1.31s-3.74-.37-5.06-1.11-2.21-1.77-2.64-3.08-.65-3.28-.65-5.92v-7.85c0-1.94.07-3.39.2-4.36.13-.97.53-1.9,1.19-2.8.66-.9,1.57-1.6,2.74-2.12,1.17-.51,2.51-.77,4.03-.77,2.06,0,3.76.4,5.1,1.19s2.22,1.79,2.64,2.98c.42,1.19.63,3.04.63,5.54v2.55Z" style="fill: #1d1d1b; stroke-width: 0px;"/>
    <path d="m256.73,46.5v26.88h-6.99v-11.29h-2.09v11.29h-6.99v-26.88h6.99v9.61h2.09v-9.61h6.99Z" style="fill: #1d1d1b; stroke-width: 0px;"/>
  </g>
  <g>
    <g>
      <g>
        <polygon points="74 26.1 36.57 73.17 74 94.19 74 26.1" style="fill: none; stroke-width: 0px;"/>
        <path d="m75.73,97.16l-41.8-23.47,41.27-53.05.53,76.53Zm-36.54-24.51l33.06,18.57V31.08l-33.06,41.57Z" style="fill: #1d1d1b; stroke-width: 0px;"/>
      </g>
      <g>
        <polygon points="79.18 25.69 81.76 94.19 118.29 72.93 79.18 25.69" style="fill: none; stroke-width: 0px;"/>
        <path d="m80.14,97.14l-2.89-76.52,43.69,52.77-40.8,23.74Zm.97-66.4l2.28,60.49,32.25-18.77-34.54-41.72Z" style="fill: #1d1d1b; stroke-width: 0px;"/>
      </g>
    </g>
    <polygon points="75.21 20.63 77.25 20.63 79.18 55.13 74.6 55.13 75.21 20.63" style="fill: #1d1d1b; stroke-width: 0px;"/>
  </g>
</svg>