<svg width="100" height="30" viewBox="0 0 28 10" fill="none" xmlns="http://www.w3.org/2000/svg">
<path d="M0.588168 0.529465H2.17959C2.6091 0.529465 2.9414 0.578443 3.17198 0.6764C3.40255 0.774357 3.57661 0.914763 3.69416 1.09762C3.80945 1.28047 3.88857 1.50577 3.92926 1.76699C3.96995 2.02821 3.99029 2.4331 3.99029 2.98492V3.74899C3.99029 4.31061 3.9496 4.71876 3.87049 4.97345C3.79137 5.22814 3.64443 5.42732 3.42968 5.56446C3.21493 5.7016 2.93688 5.77017 2.59101 5.77017H2.16603V9.30316H0.585907V0.526199L0.588168 0.529465ZM2.16829 2.03147V4.2649C2.2135 4.26816 2.25193 4.27143 2.28358 4.27143C2.42825 4.27143 2.52998 4.21918 2.58649 4.11796C2.64301 4.01347 2.67013 3.80123 2.67013 3.47471V2.75309C2.67013 2.45269 2.63849 2.25678 2.57293 2.16861C2.50737 2.08045 2.37174 2.03147 2.16829 2.03147Z" fill="#872822"/>
<path d="M4.44693 0.529465H5.5659C6.31188 0.529465 6.81599 0.571912 7.08047 0.653543C7.34495 0.735174 7.55971 0.947415 7.72699 1.29026C7.89427 1.63311 7.97565 2.17514 7.97565 2.92615C7.97565 3.60858 7.91687 4.06898 7.79932 4.30408C7.68178 4.53918 7.4512 4.67958 7.10534 4.72529C7.41729 4.83631 7.62752 4.98651 7.73603 5.1759C7.84454 5.36528 7.91009 5.53507 7.93722 5.6918C7.96434 5.84854 7.97565 6.28281 7.97565 6.99137V9.30642H6.50855V6.39057C6.50855 5.92037 6.48368 5.62977 6.43169 5.51875C6.3797 5.40773 6.24633 5.35222 6.02931 5.35222V9.30969H4.44919V0.532729L4.44693 0.529465ZM6.02705 2.03147V3.98409C6.20564 3.98409 6.32997 3.94817 6.40004 3.8796C6.47238 3.80776 6.50629 3.5792 6.50629 3.1939V2.71064C6.50629 2.4331 6.47238 2.25025 6.40231 2.16208C6.33449 2.07392 6.2079 2.03147 6.02479 2.03147H6.02705Z" fill="#872822"/>
<path d="M12.1961 5.66896C12.1961 6.55057 12.1825 7.17423 12.1531 7.5432C12.1237 7.90891 12.0333 8.24523 11.8819 8.5489C11.7304 8.85256 11.527 9.0844 11.2693 9.24766C11.0116 9.41092 10.7109 9.49255 10.3696 9.49255C10.044 9.49255 9.75243 9.41418 9.49246 9.26072C9.2325 9.10725 9.02453 8.87542 8.86855 8.56849C8.71257 8.26155 8.61763 7.9285 8.58598 7.56606C8.55433 7.20362 8.54077 6.57343 8.54077 5.66896V4.16695C8.54077 3.28533 8.55433 2.66167 8.58372 2.2927C8.61311 1.92699 8.70353 1.59067 8.85499 1.28701C9.00644 0.98334 9.20989 0.751508 9.4676 0.588246C9.7253 0.424984 10.026 0.343353 10.3673 0.343353C10.6928 0.343353 10.9844 0.421719 11.2444 0.575185C11.5044 0.728651 11.7123 0.960483 11.8683 1.26741C12.0243 1.57435 12.1192 1.9074 12.1509 2.26984C12.1825 2.63228 12.1961 3.26248 12.1961 4.16695V5.66896ZM10.616 2.78575C10.616 2.3776 10.6001 2.11638 10.5685 2.00209C10.5368 1.88781 10.4735 1.8323 10.3763 1.8323C10.2927 1.8323 10.2317 1.87801 10.1865 1.96944C10.1435 2.06087 10.1209 2.33515 10.1209 2.78575V6.88362C10.1209 7.393 10.1345 7.70647 10.1638 7.82728C10.1932 7.94809 10.2588 8.00687 10.365 8.00687C10.4713 8.00687 10.5414 7.9383 10.5707 7.80116C10.6001 7.66402 10.616 7.33749 10.616 6.82159V2.78902V2.78575Z" fill="#872822"/>
<path d="M15.9689 0.529465V2.28616H15.0308V9.30642H13.4507V2.28616H12.5171V0.529465H15.9689Z" fill="#872822"/>
<path d="M16.3284 0.529465H18.9619V2.28616H17.9062V3.95143H18.8941V5.61997H17.9062V7.54972H19.0659V9.30642H16.3261V0.529465H16.3284Z" fill="#872822"/>
<path d="M23.2117 4.35307H21.6316V2.8282C21.6316 2.38413 21.6158 2.10658 21.5819 1.99883C21.548 1.88781 21.4734 1.83557 21.3581 1.83557C21.227 1.83557 21.1456 1.90414 21.1094 2.03475C21.0732 2.16536 21.0574 2.45596 21.0574 2.9033V6.97832C21.0574 7.40606 21.0755 7.68361 21.1094 7.81422C21.1433 7.94483 21.2224 8.01013 21.3468 8.01013C21.4711 8.01013 21.5412 7.94483 21.5773 7.81422C21.6135 7.68361 21.6316 7.37668 21.6316 6.89669V5.79304H23.2117V6.13589C23.2117 7.04362 23.1665 7.69014 23.0783 8.06891C22.9902 8.44767 22.7935 8.78073 22.4883 9.06807C22.1854 9.35541 21.8102 9.49581 21.3649 9.49581C20.9195 9.49581 20.5194 9.375 20.221 9.13338C19.9226 8.89175 19.7214 8.55543 19.6242 8.12768C19.527 7.69994 19.4773 7.05668 19.4773 6.19466V3.63145C19.4773 2.99799 19.4931 2.52453 19.5225 2.20781C19.5519 1.89108 19.6423 1.58741 19.7915 1.29354C19.9407 0.999667 20.1464 0.7711 20.4109 0.601307C20.6754 0.43478 20.9783 0.349884 21.3219 0.349884C21.7876 0.349884 22.1719 0.480494 22.4748 0.738448C22.7777 0.996402 22.9766 1.32293 23.0716 1.71149C23.1665 2.10005 23.214 2.70412 23.214 3.52043V4.35307H23.2117Z" fill="#872822"/>
<path d="M27.4096 0.529465V9.30642H25.8295V5.61997H25.357V9.30642H23.7769V0.529465H25.357V3.66736H25.8295V0.529465H27.4096Z" fill="#872822"/>
</svg>
