<svg width="155" height="54" viewBox="0 0 155 54" fill="none" xmlns="http://www.w3.org/2000/svg">
<path d="M72.4562 17.932H77.3539C78.6757 17.932 79.6984 18.0359 80.408 18.2438C81.1176 18.4517 81.6533 18.7496 82.015 19.1376C82.3698 19.5256 82.6133 20.0037 82.7385 20.5581C82.8638 21.1124 82.9264 21.9715 82.9264 23.1425V24.7639C82.9264 25.9557 82.8012 26.8218 82.5577 27.3622C82.3142 27.9027 81.862 28.3253 81.2011 28.6164C80.5402 28.9074 79.6845 29.0529 78.6201 29.0529H77.3122V36.55H72.4493V17.9251L72.4562 17.932ZM77.3191 21.1193V25.8587C77.4583 25.8656 77.5765 25.8725 77.6739 25.8725C78.1192 25.8725 78.4322 25.7617 78.6061 25.5469C78.7801 25.3251 78.8635 24.8748 78.8635 24.1819V22.6506C78.8635 22.0131 78.7662 21.5974 78.5644 21.4103C78.3626 21.2232 77.9452 21.1193 77.3191 21.1193Z" fill="#872822"/>
<path d="M84.3247 17.932H87.7684C90.0642 17.932 91.6155 18.0221 92.4295 18.1953C93.2435 18.3685 93.9044 18.8189 94.4192 19.5464C94.934 20.274 95.1844 21.4242 95.1844 23.0178C95.1844 24.466 95.0036 25.4429 94.6418 25.9418C94.28 26.4407 93.5704 26.7386 92.506 26.8356C93.4661 27.0712 94.1131 27.3899 94.447 27.7918C94.7809 28.1937 94.9827 28.554 95.0662 28.8866C95.1497 29.2192 95.1844 30.1407 95.1844 31.6443V36.5569H90.6694V30.3694C90.6694 29.3716 90.5929 28.7549 90.4329 28.5194C90.2729 28.2838 89.8624 28.166 89.1945 28.166V36.5638H84.3317V17.9389L84.3247 17.932ZM89.1876 21.1193V25.2628C89.7372 25.2628 90.1198 25.1866 90.3355 25.041C90.5581 24.8886 90.6625 24.4036 90.6625 23.586V22.5605C90.6625 21.9715 90.5581 21.5835 90.3424 21.3964C90.1337 21.2094 89.7441 21.1193 89.1806 21.1193H89.1876Z" fill="#872822"/>
<path d="M108.18 28.8381C108.18 30.7089 108.138 32.0323 108.048 32.8153C107.957 33.5913 107.679 34.305 107.213 34.9494C106.747 35.5938 106.121 36.0857 105.328 36.4322C104.535 36.7786 103.609 36.9518 102.559 36.9518C101.557 36.9518 100.66 36.7855 99.8595 36.4599C99.0595 36.1342 98.4194 35.6423 97.9394 34.991C97.4594 34.3396 97.1672 33.6329 97.0698 32.8638C96.9724 32.0947 96.9306 30.7574 96.9306 28.8381V25.6508C96.9306 23.78 96.9724 22.4566 97.0628 21.6736C97.1533 20.8976 97.4315 20.1839 97.8976 19.5395C98.3638 18.8951 98.9899 18.4032 99.783 18.0567C100.576 17.7103 101.501 17.537 102.552 17.537C103.554 17.537 104.451 17.7033 105.251 18.029C106.051 18.3547 106.691 18.8466 107.171 19.4979C107.651 20.1492 107.943 20.856 108.041 21.6251C108.138 22.3942 108.18 23.7315 108.18 25.6508V28.8381ZM103.317 22.7199C103.317 21.8538 103.268 21.2994 103.171 21.0569C103.074 20.8144 102.879 20.6966 102.58 20.6966C102.322 20.6966 102.134 20.7936 101.995 20.9876C101.863 21.1816 101.794 21.7637 101.794 22.7199V31.4156C101.794 32.4965 101.835 33.1617 101.926 33.4181C102.016 33.6745 102.218 33.7992 102.545 33.7992C102.872 33.7992 103.088 33.6537 103.178 33.3627C103.268 33.0716 103.317 32.3788 103.317 31.284V22.7268V22.7199Z" fill="#872822"/>
<path d="M119.784 17.932V21.6597H116.897V36.5569H112.034V21.6597H109.161V17.932H119.784Z" fill="#872822"/>
<path d="M120.89 17.932H128.995V21.6597H125.746V25.1935H128.786V28.7342H125.746V32.8291H129.315V36.5569H120.883V17.932H120.89Z" fill="#872822"/>
<path d="M142.074 26.0388H137.211V22.803C137.211 21.8607 137.162 21.2717 137.058 21.0431C136.954 20.8075 136.724 20.6966 136.369 20.6966C135.966 20.6966 135.715 20.8421 135.604 21.1193C135.493 21.3964 135.444 22.0131 135.444 22.9624V31.6096C135.444 32.5173 135.5 33.1063 135.604 33.3834C135.708 33.6606 135.952 33.7992 136.335 33.7992C136.717 33.7992 136.933 33.6606 137.044 33.3834C137.156 33.1063 137.211 32.455 137.211 31.4364V29.0945H142.074V29.822C142.074 31.7482 141.935 33.1201 141.664 33.9239C141.392 34.7277 140.787 35.4344 139.848 36.0441C138.916 36.6539 137.761 36.9518 136.39 36.9518C135.02 36.9518 133.788 36.6955 132.87 36.1827C131.952 35.67 131.333 34.9563 131.033 34.0486C130.734 33.1409 130.581 31.7759 130.581 29.9467V24.5075C130.581 23.1633 130.63 22.1586 130.72 21.4865C130.811 20.8144 131.089 20.17 131.548 19.5464C132.007 18.9228 132.64 18.4378 133.454 18.0775C134.268 17.7241 135.201 17.544 136.258 17.544C137.691 17.544 138.874 17.8211 139.806 18.3685C140.738 18.9159 141.351 19.6088 141.643 20.4333C141.935 21.2579 142.081 22.5397 142.081 24.2719V26.0388H142.074Z" fill="#872822"/>
<path d="M155 17.932V36.5569H150.137V28.7342H148.683V36.5569H143.82V17.932H148.683V24.5907H150.137V17.932H155Z" fill="#872822"/>
<path d="M29.0799 53.0341L0 36.772L28.7112 0.0141525L29.0799 53.041V53.0341ZM3.65933 36.0514L26.6589 48.9183V7.24792L3.65933 36.0514Z" fill="#872822"/>
<path d="M32.1479 53.0199L30.1373 0L60.5321 36.5638L32.1479 53.013V53.0199ZM32.8227 7.01205L34.4089 48.925L56.8449 35.9194L32.8157 7.01205H32.8227Z" fill="#872822"/>
<path d="M28.7181 0.00692749H30.1373L31.48 23.9116H28.2938L28.7181 0.00692749Z" fill="#872822"/>
</svg>
