<svg width="48" height="41" viewBox="0 0 48 41" fill="none" xmlns="http://www.w3.org/2000/svg">
<path fill-rule="evenodd" clip-rule="evenodd" d="M14.7037 13.2969H32.2963C34.3418 13.2969 36 14.8359 36 16.7344V28.4792C36 30.3776 34.3418 31.9167 32.2963 31.9167H14.7037C12.6582 31.9167 11 30.3776 11 28.4792V16.7344C11 14.8359 12.6582 13.2969 14.7037 13.2969ZM14.7037 15.5885C14.0219 15.5885 13.4691 16.1015 13.4691 16.7344V28.4792C13.4691 29.112 14.0219 29.625 14.7037 29.625H32.2963C32.9781 29.625 33.5309 29.112 33.5309 28.4792V16.7344C33.5309 16.1015 32.9781 15.5885 32.2963 15.5885H14.7037Z" fill="black"/>
<path fill-rule="evenodd" clip-rule="evenodd" d="M17.7073 11.2917C17.7073 10.026 18.7993 9 20.1463 9H26.8537C28.2007 9 29.2927 10.026 29.2927 11.2917V17.5938H26.8537V11.2917H20.1463V17.5938H17.7073V11.2917Z" fill="black"/>
</svg>
